<svg width="921" height="568" viewBox="0 0 921 568" fill="none" xmlns="http://www.w3.org/2000/svg">
    <style>
        .handmove {
            animation: handMove .3s linear infinite;
        }

        .ball {
            animation: ballMove 2s ease-in-out infinite alternate;
        }

        .reverseBall {
            animation: reverseBallMove 2s ease-in-out infinite alternate;
        }

        .loop,
        .tie {

            animation: loopMove 2s 2s ease-in-out both;
        }

        .eye {
            animation: eyeBlink 3s ease-in-out infinite alternate;
        }

        .secondEye {
            animation: eyeBlink 5s 2s ease-in-out infinite alternate;
        }

        @keyframes handMove {
            0% {

                transform: translateY(0);
            }

            50% {
                transform: translateY(2px)
            }

            100% {
                transform: translateY(-2)
            }
        }

        @keyframes ballMove {
            0% {
                transform: translateY(0px);
            }

            50% {
                transform: translateY(150px);
            }

            100% {
                transform: translateY(0);
            }
        }

        @keyframes reverseBallMove {
            0% {
                transform: translateY(0px);
            }

            50% {
                transform: translateY(-150px);
            }

            100% {
                transform: translateY(0);
            }

        }

        @keyframes loopMove {
            0% {
                transform: scale(100)
            }

            100% {
                transform: scale(1)
            }

        }

        @keyframes eyeBlink {
            0% {
                opacity: 1;
            }

            60% {
                opacity: 1;
            }

            65% {
                opacity: 0;
            }

            70% {
                opacity: 1;
            }

            100% {
                opacity: 1;
            }


        }
    </style>
    <g clip-path="url(#clip0)">

        <path
            d="M910.386 372.27H269.797C267.17 372.267 264.651 371.221 262.793 369.364C260.935 367.506 259.89 364.986 259.887 362.359V9.91064C259.89 7.28309 260.935 4.764 262.793 2.90604C264.651 1.04807 267.17 0.00296701 269.797 0H910.386C913.014 0.00296701 915.533 1.04807 917.391 2.90604C919.249 4.764 920.294 7.28309 920.297 9.91064V362.359C920.294 364.986 919.249 367.506 917.391 369.364C915.533 371.221 913.014 372.267 910.386 372.27V372.27Z"
            fill="#E6E6E6" />
        <path
            d="M896.872 358.755H283.312C280.684 358.752 278.165 357.707 276.307 355.849C274.449 353.991 273.404 351.472 273.401 348.844V23.4252C273.404 20.7976 274.449 18.2785 276.307 16.4205C278.165 14.5626 280.684 13.5175 283.312 13.5145H896.872C899.499 13.5175 902.018 14.5626 903.876 16.4205C905.734 18.2785 906.779 20.7976 906.782 23.4252V348.844C906.779 351.472 905.734 353.991 903.876 355.849C902.018 357.707 899.499 358.752 896.872 358.755V358.755Z"
            fill="white" />
        <path d="M153.95 481.518L165.052 487.573L157.987 510.786L146.886 511.795L140.83 498.675L153.95 481.518Z"
            fill="#FFB9B9" />
        <path d="M119.636 527.943V539.044L102.479 538.035L102.718 528.892L119.636 527.943Z" fill="#FFB9B9" />
        <path
            d="M157.987 348.297L151.932 423.991L132.756 535.007L102.479 530.97L112.571 443.166L108.534 362.427L157.987 348.297Z"
            fill="#2F2E41" />
        <path
            d="M77.2476 291.78L149.913 292.789L157.987 348.297L108.534 371.51L96.4232 415.917L157.987 481.517L133.765 511.795C133.765 511.795 99.4509 465.37 74.2198 439.129C48.9887 412.889 61.0996 333.159 61.0996 333.159L77.2476 291.78Z"
            fill="#2F2E41" />
        <path
            d="M120.645 148.467C132.908 148.467 142.848 138.526 142.848 126.263C142.848 114.001 132.908 104.06 120.645 104.06C108.382 104.06 98.4417 114.001 98.4417 126.263C98.4417 138.526 108.382 148.467 120.645 148.467Z"
            fill="#FFB9B9" />
        <path
            d="M128.719 141.402V163.606L113.58 187.827C113.58 187.827 90.3677 170.67 95.4139 166.633C100.46 162.596 101.469 131.31 101.469 131.31L128.719 141.402Z"
            fill="#FFB9B9" />
        <path
            d="M128.719 159.569L143.858 177.735L137.802 303.89L90.368 302.881L82.294 192.874L92.386 164.615L99.309 155.196L111.562 173.698L128.719 159.569Z"
            fill="white" />
        <path
            d="M152.941 225.169L164.043 267.558L152.941 309.946L171.107 334.168L187.255 257.465C187.255 257.465 175.144 194.892 174.135 187.827C173.126 180.763 171.107 179.753 171.107 179.753L163.033 180.763L152.941 225.169Z"
            fill="#2F2E41" />
        <path
            d="M72.202 241.317L65.137 254.438L63.118 276.641L67.155 301.872L53.026 325.085L38.897 261.502L54.035 179.753H60.091L72.202 241.317Z"
            fill="#2F2E41" />
        <path
            d="M157.987 480.508C157.987 480.508 172.116 484.545 177.163 485.554C182.209 486.564 174.135 505.739 174.135 505.739C174.135 505.739 169.089 531.98 168.08 537.026C167.07 542.072 160.006 559.229 150.922 561.248C141.839 563.266 147.895 525.924 147.895 525.924C147.895 525.924 143.858 513.813 143.858 509.776C143.858 505.739 149.913 507.758 149.913 507.758C166.061 505.739 157.987 480.508 157.987 480.508Z"
            fill="#2F2E41" />
        <path
            d="M124.682 558.22C123.673 564.275 125.691 564.275 109.543 566.294C93.3954 568.313 97.4325 555.192 97.4325 555.192C98.1076 549.007 99.4614 542.915 101.469 537.026C104.497 528.952 120.645 539.044 120.645 539.044C120.645 539.044 125.691 552.164 124.682 558.22Z"
            fill="#2F2E41" />
        <path
            d="M101.443 132.015L100.917 140.99C100.917 140.99 94.4047 126.263 93.3955 111.125C92.3862 95.9861 109.543 92.9584 119.636 91.9491C129.728 90.9399 146.885 98.0046 146.885 106.079C146.885 114.153 128.719 112.134 121.654 110.116C114.59 108.097 111.562 125.254 111.562 125.254L107.525 126.263L101.443 132.015Z"
            fill="#2F2E41" />
        <path d="M134.676 166.716L128.719 159.569L111.562 173.698L128.719 185.809L134.676 166.716Z" fill="white" />
        <path d="M92.386 164.615L99.451 155.532L111.562 173.698L96.423 184.8L92.386 164.615Z" fill="white" />
        <path
            d="M155.969 239.299L151.932 277.65L160.006 300.863L165.052 323.066C165.052 323.066 165.052 344.26 144.867 345.269C124.682 346.279 107.525 281.687 107.525 281.687C107.525 281.687 104.497 295.816 102.479 303.89C100.46 311.964 66.1459 344.26 66.1459 344.26C66.1459 344.26 58.0719 343.251 51.0072 327.103C43.9425 310.955 65.1366 295.817 65.1366 295.817L71.1921 274.622L69.1736 248.382L55.0442 179.753L96.9278 158.055L92.3862 216.086L107.525 261.502L130.233 161.082L137.802 166.633L170.098 179.753L155.969 239.299Z"
            fill="#2F2E41" />
        <path
            d="M590 291.181C766.179 291.181 909 288.006 909 284.089C909 280.173 766.179 276.997 590 276.997C413.821 276.997 271 280.173 271 284.089C271 288.006 413.821 291.181 590 291.181Z"
            fill="#E6E6E6" />
        <path
            d="M760.005 207.244C759.602 207.248 759.199 207.253 758.791 207.253C758.382 207.253 757.979 207.248 757.577 207.244C736.223 206.858 720.745 196.254 724.685 185.128L734.292 157.987L736.719 151.119L779.758 151.702L782.374 158.421L792.67 184.865C797.029 196.052 781.552 206.858 760.005 207.244Z"
            fill="#3F3D56" />
        <path opacity="0.2"
            d="M782.374 158.421C775.035 161.755 766.711 163.472 758.258 163.396C749.806 163.32 741.533 161.452 734.292 157.987L736.719 151.119L779.758 151.702L782.374 158.421Z"
            fill="black" />
        <path
            d="M780.557 186.029C782.416 180.522 788.527 172.577 805.663 162.999C835.55 146.291 817.721 133.764 816.949 133.239C815.328 132.138 815.568 130.902 817.505 130.479C818.631 130.3 819.792 130.315 820.91 130.522C822.028 130.729 823.078 131.123 823.988 131.679C824.956 132.315 847.281 147.467 813.557 166.317C783.206 183.285 789.659 194.36 789.733 194.466C790.546 195.651 789.242 196.599 786.817 196.586C784.392 196.573 781.766 195.604 780.95 194.42C780.778 194.17 778.825 191.156 780.557 186.029Z"
            fill="#3F3D56" />
        <path
            d="M738.927 211.2C738.274 211.2 737.629 211.098 737.026 210.899C736.424 210.701 735.876 210.41 735.415 210.044C734.954 209.677 734.588 209.242 734.338 208.763C734.089 208.284 733.96 207.771 733.96 207.253V190.149C733.96 189.103 734.484 188.099 735.415 187.359C736.346 186.618 737.609 186.203 738.927 186.203C740.244 186.203 741.507 186.618 742.438 187.359C743.369 188.099 743.893 189.103 743.893 190.149V207.253C743.893 207.771 743.764 208.284 743.515 208.763C743.265 209.242 742.899 209.677 742.438 210.044C741.977 210.41 741.429 210.701 740.827 210.899C740.224 211.098 739.579 211.2 738.927 211.2V211.2Z"
            fill="#3F3D56" />
        <path class='handmove'
            d="M743.281 170.596C743.008 171.067 742.621 171.49 742.143 171.842C741.664 172.194 741.103 172.468 740.492 172.648C739.88 172.828 739.23 172.91 738.578 172.89C737.926 172.87 737.286 172.748 736.694 172.532L717.144 165.383C715.949 164.945 715.022 164.147 714.566 163.166C714.11 162.185 714.163 161.1 714.713 160.149C715.263 159.199 716.265 158.461 717.5 158.098C718.734 157.735 720.099 157.776 721.295 158.212L740.845 165.36C741.437 165.577 741.97 165.884 742.413 166.265C742.856 166.645 743.201 167.091 743.427 167.577C743.653 168.063 743.757 168.58 743.732 169.098C743.706 169.616 743.553 170.125 743.281 170.596V170.596Z"
            fill="#3F3D56" />
        <path class='handmove'
            d="M774.3 170.596C774.573 171.067 774.96 171.49 775.438 171.842C775.917 172.194 776.478 172.468 777.09 172.648C777.701 172.828 778.351 172.91 779.003 172.89C779.655 172.87 780.295 172.748 780.888 172.532L800.437 165.383C801.634 164.945 802.562 164.148 803.019 163.166C803.476 162.184 803.423 161.099 802.873 160.148C802.322 159.197 801.319 158.459 800.084 158.096C798.849 157.732 797.482 157.774 796.286 158.212L776.736 165.36C776.144 165.577 775.611 165.884 775.168 166.265C774.725 166.645 774.38 167.091 774.154 167.577C773.928 168.063 773.824 168.58 773.85 169.098C773.875 169.616 774.028 170.125 774.3 170.596V170.596Z"
            fill="#3F3D56" />
        <path
            d="M778.655 211.2C779.307 211.2 779.953 211.098 780.555 210.899C781.158 210.701 781.705 210.41 782.166 210.044C782.627 209.677 782.993 209.242 783.243 208.763C783.492 208.284 783.621 207.771 783.621 207.253V190.149C783.621 189.103 783.097 188.099 782.166 187.359C781.235 186.618 779.972 186.203 778.655 186.203C777.338 186.203 776.074 186.618 775.143 187.359C774.212 188.099 773.689 189.103 773.689 190.149V207.253C773.689 207.771 773.817 208.284 774.067 208.763C774.316 209.242 774.682 209.677 775.143 210.044C775.604 210.41 776.152 210.701 776.754 210.899C777.357 211.098 778.002 211.2 778.655 211.2V211.2Z"
            fill="#3F3D56" />
        <path
            d="M799.408 100.474C799.837 100.044 800.147 99.5469 800.317 99.0153C800.487 98.4836 800.513 97.9293 800.394 97.389L797.691 84.7521L794.988 72.1152C794.842 71.4329 794.473 70.7931 793.917 70.2602C793.362 69.7273 792.639 69.32 791.823 69.0793C791.007 68.8386 790.125 68.773 789.266 68.889C788.408 69.0049 787.603 69.2985 786.932 69.7401L774.514 77.9188L767.032 82.8462C762.043 82.1411 756.943 82.08 751.929 82.6652L744.722 77.9188L732.304 69.7401C731.634 69.2985 730.829 69.0049 729.97 68.889C729.112 68.773 728.23 68.8386 727.413 69.0793C726.597 69.3201 725.875 69.7273 725.319 70.2602C724.763 70.7931 724.394 71.4329 724.248 72.1152L721.545 84.7521L718.843 97.389C718.698 98.0531 718.773 98.7357 719.059 99.3702C714.427 105.014 711.782 111.541 711.4 118.272C711.018 125.003 712.911 131.693 716.885 137.645C720.858 143.597 726.765 148.595 733.992 152.117C741.219 155.64 749.501 157.56 757.978 157.676C766.455 157.792 774.816 156.102 782.191 152.779C789.567 149.457 795.688 144.625 799.917 138.785C804.147 132.945 806.331 126.312 806.241 119.574C806.151 112.836 803.792 106.241 799.408 100.474V100.474Z"
            fill="#3F3D56" />
        <path
            d="M731.06 74.9185C730.765 74.9189 730.473 74.961 730.197 75.0429C729.791 75.1603 729.432 75.3614 729.157 75.6255C728.882 75.8897 728.699 76.2074 728.63 76.5459L725.352 91.8706C725.28 92.2084 725.321 92.5554 725.471 92.8766C725.621 93.1979 725.874 93.4821 726.206 93.7007C726.538 93.9193 726.937 94.0647 727.362 94.1221C727.787 94.1795 728.224 94.147 728.628 94.0278L746.965 88.6213C747.369 88.5022 747.726 88.3005 748.002 88.0367C748.277 87.7729 748.459 87.4563 748.532 87.1185C748.604 86.7807 748.563 86.4338 748.413 86.1126C748.263 85.7914 748.01 85.5072 747.678 85.2886L747.677 85.2881L732.618 75.3701C732.181 75.0792 731.63 74.9194 731.06 74.9185V74.9185Z"
            fill="#E6E6E6" />
        <path
            d="M788.177 74.9185C787.607 74.9194 787.055 75.0792 786.618 75.3701L771.559 85.2886C771.227 85.5072 770.973 85.7914 770.823 86.1126C770.673 86.4338 770.633 86.7807 770.705 87.1185C770.777 87.4563 770.96 87.7729 771.235 88.0367C771.51 88.3005 771.868 88.5022 772.272 88.6213L790.609 94.0278C791.013 94.147 791.449 94.1795 791.875 94.1221C792.3 94.0647 792.698 93.9193 793.03 93.7007C793.362 93.4821 793.616 93.1979 793.766 92.8766C793.916 92.5554 793.957 92.2084 793.884 91.8706L790.607 76.5459C790.537 76.2074 790.355 75.8897 790.079 75.6255C789.804 75.3614 789.445 75.1603 789.039 75.0429C788.763 74.961 788.471 74.9189 788.177 74.9185Z"
            fill="#E6E6E6" />
        <path
            d="M758.791 130.507C762.447 130.507 765.412 128.151 765.412 125.245C765.412 122.339 762.447 119.982 758.791 119.982C755.134 119.982 752.169 122.339 752.169 125.245C752.169 128.151 755.134 130.507 758.791 130.507Z"
            fill="#E6E6E6" />
        <path
            d="M758.791 123.929C761.228 123.929 763.205 123.34 763.205 122.614C763.205 121.887 761.228 121.298 758.791 121.298C756.353 121.298 754.376 121.887 754.376 122.614C754.376 123.34 756.353 123.929 758.791 123.929Z"
            fill="#3F3D56" />
        <path
            d="M755.48 128.315H761.549V134.235C761.549 134.552 761.471 134.865 761.318 135.158C761.166 135.451 760.942 135.717 760.661 135.941C760.379 136.165 760.044 136.342 759.676 136.463C759.308 136.585 758.913 136.647 758.515 136.647V136.647C757.71 136.647 756.938 136.393 756.369 135.941C755.8 135.488 755.48 134.875 755.48 134.235V128.315H755.48Z"
            fill="#FF6584" />
        <path
            d="M759.159 68.6231C758.841 69.1477 758.532 69.678 758.241 70.2191C754.817 76.5664 753.662 83.5415 754.904 90.3769C755.525 89.6605 756.178 88.9141 756.842 88.1595C755.42 81.5994 756.219 74.8565 759.159 68.6231V68.6231Z"
            fill="#3F3D56" />
        <path
            d="M764.125 73.4471C763.807 73.9717 763.498 74.5019 763.207 75.043C759.783 81.3904 758.628 88.3655 759.87 95.2009C760.491 94.4845 761.144 93.7381 761.808 92.9835C760.386 86.4233 761.185 79.6805 764.125 73.4471V73.4471Z"
            fill="#3F3D56" />
        <path class='tie'
            d="M779.436 168.152L778.736 161.081L778.036 154.01C777.999 153.628 777.835 153.261 777.562 152.945C777.289 152.629 776.917 152.376 776.482 152.212C776.047 152.047 775.565 151.976 775.085 152.006C774.604 152.036 774.142 152.166 773.745 152.383L766.39 156.4L761.019 159.333C760.676 159.014 760.25 158.757 759.77 158.581C759.29 158.405 758.767 158.314 758.239 158.314C757.71 158.314 757.188 158.405 756.708 158.581C756.228 158.757 755.802 159.014 755.458 159.333L750.087 156.4L742.732 152.383C742.335 152.166 741.873 152.036 741.393 152.006C740.913 151.976 740.431 152.047 739.996 152.212C739.561 152.376 739.188 152.629 738.915 152.945C738.642 153.261 738.479 153.628 738.441 154.01L737.742 161.081L737.042 168.152C737.004 168.534 737.094 168.917 737.301 169.262C737.508 169.608 737.827 169.904 738.224 170.121C738.621 170.338 739.083 170.468 739.563 170.498C740.044 170.528 740.526 170.457 740.96 170.292L749.015 167.238L755.633 164.729C755.974 165.003 756.379 165.221 756.827 165.369C757.274 165.518 757.754 165.594 758.239 165.594C758.724 165.594 759.203 165.518 759.651 165.369C760.098 165.221 760.504 165.003 760.844 164.729L767.462 167.238L775.517 170.292C775.952 170.457 776.434 170.528 776.914 170.498C777.395 170.468 777.857 170.338 778.254 170.121C778.651 169.904 778.969 169.608 779.177 169.262C779.384 168.917 779.473 168.534 779.436 168.152V168.152Z"
            fill="#2C387E" />
        <path class='secondEye'
            d="M749.962 120.859C750.876 120.859 751.617 120.27 751.617 119.544C751.617 118.817 750.876 118.228 749.962 118.228C749.048 118.228 748.307 118.817 748.307 119.544C748.307 120.27 749.048 120.859 749.962 120.859Z"
            fill="#E6E6E6" />
        <path class='secondEye'
            d="M767.619 120.859C768.533 120.859 769.274 120.27 769.274 119.544C769.274 118.817 768.533 118.228 767.619 118.228C766.705 118.228 765.964 118.817 765.964 119.544C765.964 120.27 766.705 120.859 767.619 120.859Z"
            fill="#E6E6E6" />
        <path
            d="M438.506 195.621C438.909 195.625 439.312 195.63 439.72 195.63C440.128 195.63 440.531 195.625 440.934 195.621C462.288 195.235 477.765 184.631 473.825 173.505L464.219 146.363L461.791 139.496L418.752 140.079L416.137 146.798L405.84 173.242C401.481 184.429 416.959 195.235 438.506 195.621Z"
            fill="#3F3D56" />
        <path opacity="0.2"
            d="M416.137 146.798C423.475 150.132 431.8 151.849 440.252 151.773C448.704 151.696 456.978 149.829 464.219 146.363L461.791 139.496L418.752 140.079L416.137 146.798Z"
            fill="black" />
        <path
            d="M412.726 171.189C408.08 166.843 398.28 161.741 377.635 158.912C341.628 153.975 350.997 136.589 351.413 135.852C352.285 134.306 351.403 133.27 349.424 133.547C348.31 133.768 347.269 134.176 346.37 134.743C345.47 135.311 344.734 136.024 344.21 136.836C343.678 137.74 331.658 159.028 372.288 164.596C408.855 169.609 408.985 181.814 408.975 181.935C408.878 183.283 410.567 183.696 412.752 182.86C414.936 182.024 416.788 180.254 416.889 178.907C416.909 178.622 417.051 175.233 412.726 171.189Z"
            fill="#3F3D56" />
        <path
            d="M459.584 199.576C460.236 199.576 460.882 199.474 461.484 199.276C462.087 199.078 462.634 198.787 463.095 198.42C463.557 198.054 463.922 197.619 464.172 197.14C464.421 196.661 464.55 196.148 464.55 195.63V178.526C464.548 177.48 464.024 176.478 463.093 175.739C462.162 174.999 460.9 174.584 459.584 174.584C458.268 174.584 457.006 174.999 456.074 175.739C455.143 176.478 454.619 177.48 454.618 178.526V195.63C454.618 196.148 454.746 196.661 454.996 197.14C455.245 197.619 455.611 198.054 456.072 198.42C456.533 198.787 457.081 199.078 457.683 199.276C458.286 199.474 458.932 199.576 459.584 199.576V199.576Z"
            fill="#3F3D56" />
        <path class='handmove'
            d="M455.23 158.973C455.502 159.444 455.889 159.867 456.367 160.219C456.846 160.571 457.407 160.845 458.019 161.025C458.63 161.205 459.281 161.287 459.932 161.267C460.584 161.247 461.224 161.125 461.817 160.909L481.366 153.76C481.96 153.544 482.493 153.236 482.937 152.856C483.381 152.476 483.726 152.03 483.952 151.543C484.179 151.057 484.283 150.54 484.258 150.022C484.233 149.503 484.08 148.994 483.807 148.523C483.534 148.052 483.147 147.628 482.668 147.276C482.189 146.923 481.628 146.65 481.015 146.47C480.403 146.29 479.752 146.208 479.1 146.229C478.448 146.249 477.808 146.371 477.215 146.589L457.665 153.737C457.073 153.954 456.54 154.261 456.097 154.642C455.654 155.022 455.31 155.468 455.083 155.954C454.857 156.44 454.754 156.957 454.779 157.475C454.804 157.993 454.957 158.502 455.23 158.973V158.973Z"
            fill="#3F3D56" />
        <path class='handmove'
            d="M424.21 158.973C423.937 159.444 423.551 159.867 423.072 160.219C422.594 160.571 422.032 160.845 421.421 161.025C420.809 161.205 420.159 161.287 419.507 161.267C418.856 161.247 418.215 161.125 417.623 160.909L398.073 153.76C397.48 153.544 396.946 153.236 396.503 152.856C396.059 152.476 395.714 152.03 395.487 151.543C395.261 151.057 395.157 150.54 395.182 150.022C395.207 149.503 395.36 148.994 395.633 148.523C395.905 148.052 396.292 147.628 396.771 147.276C397.25 146.923 397.812 146.65 398.424 146.47C399.036 146.29 399.687 146.208 400.339 146.229C400.991 146.249 401.632 146.371 402.225 146.589L421.774 153.737C422.367 153.954 422.9 154.261 423.343 154.642C423.786 155.022 424.13 155.468 424.356 155.954C424.582 156.44 424.686 156.957 424.661 157.475C424.636 157.993 424.482 158.502 424.21 158.973Z"
            fill="#3F3D56" />
        <path
            d="M419.856 199.576C419.204 199.576 418.558 199.474 417.955 199.276C417.353 199.078 416.805 198.787 416.344 198.42C415.883 198.054 415.517 197.619 415.268 197.14C415.018 196.661 414.89 196.148 414.89 195.63V178.526C414.891 177.48 415.415 176.478 416.346 175.739C417.278 174.999 418.54 174.584 419.856 174.584C421.172 174.584 422.434 174.999 423.365 175.739C424.296 176.478 424.82 177.48 424.822 178.526V195.63C424.822 196.148 424.693 196.661 424.444 197.14C424.194 197.619 423.828 198.054 423.367 198.42C422.906 198.787 422.359 199.078 421.756 199.276C421.154 199.474 420.508 199.576 419.856 199.576V199.576Z"
            fill="#3F3D56" />
        <path
            d="M479.451 87.747C479.738 87.1125 479.812 86.43 479.668 85.7658L476.965 73.1289L474.262 60.492C474.116 59.8097 473.747 59.17 473.191 58.6371C472.636 58.1042 471.913 57.6969 471.097 57.4562C470.281 57.2155 469.399 57.1498 468.54 57.2658C467.682 57.3818 466.877 57.6753 466.206 58.1169L453.788 66.2957L446.581 71.0421C441.567 70.4568 436.467 70.5179 431.478 71.2231L423.996 66.2957L411.578 58.1169C410.907 57.6753 410.103 57.3818 409.244 57.2658C408.386 57.1498 407.504 57.2155 406.687 57.4562C405.871 57.6969 405.149 58.1041 404.593 58.6371C404.037 59.17 403.668 59.8097 403.522 60.492L400.819 73.1289L398.117 85.7658C397.997 86.3062 398.023 86.8604 398.193 87.3921C398.363 87.9238 398.673 88.4208 399.102 88.8504C394.713 94.6191 392.349 101.217 392.256 107.958C392.164 114.699 394.346 121.337 398.576 127.18C402.806 133.024 408.929 137.86 416.308 141.184C423.687 144.509 432.052 146.201 440.533 146.084C449.014 145.968 457.301 144.047 464.531 140.522C471.761 136.997 477.67 131.996 481.643 126.04C485.617 120.084 487.509 113.39 487.124 106.656C486.738 99.9211 484.089 93.3917 479.451 87.747H479.451Z"
            fill="#3F3D56" />
        <path
            d="M465.892 63.747L450.833 73.665L450.833 73.6654C450.501 73.884 450.247 74.1682 450.097 74.4894C449.947 74.8107 449.907 75.1576 449.979 75.4953C450.051 75.8331 450.234 76.1498 450.509 76.4136C450.784 76.6774 451.141 76.879 451.546 76.9982L469.883 82.4046C470.287 82.5238 470.723 82.5563 471.148 82.4989C471.573 82.4415 471.972 82.2962 472.304 82.0776C472.636 81.8589 472.89 81.5747 473.04 81.2535C473.19 80.9322 473.23 80.5852 473.158 80.2474L469.881 64.9228C469.811 64.5842 469.629 64.2665 469.353 64.0024C469.078 63.7382 468.719 63.5372 468.313 63.4198C468.037 63.3378 467.745 63.2957 467.451 63.2954C466.881 63.2962 466.329 63.456 465.892 63.747V63.747Z"
            fill="#E6E6E6" />
        <path
            d="M409.471 63.4198C409.065 63.5372 408.706 63.7382 408.431 64.0024C408.155 64.2665 407.973 64.5842 407.904 64.9228L404.626 80.2474C404.554 80.5852 404.595 80.9322 404.745 81.2535C404.895 81.5747 405.148 81.8589 405.48 82.0776C405.812 82.2962 406.211 82.4415 406.636 82.4989C407.061 82.5563 407.497 82.5238 407.902 82.4046L426.239 76.9982C426.643 76.879 427 76.6774 427.275 76.4136C427.55 76.1498 427.733 75.8331 427.806 75.4953C427.878 75.1576 427.837 74.8107 427.687 74.4894C427.537 74.1682 427.283 73.884 426.952 73.6654L411.892 63.747C411.455 63.456 410.904 63.2962 410.333 63.2954C410.039 63.2957 409.747 63.3378 409.471 63.4198Z"
            fill="#E6E6E6" />
        <path
            d="M439.72 118.884C443.377 118.884 446.341 116.528 446.341 113.622C446.341 110.715 443.377 108.359 439.72 108.359C436.063 108.359 433.098 110.715 433.098 113.622C433.098 116.528 436.063 118.884 439.72 118.884Z"
            fill="#E6E6E6" />
        <path
            d="M439.72 112.306C442.158 112.306 444.134 111.717 444.134 110.99C444.134 110.264 442.158 109.675 439.72 109.675C437.282 109.675 435.306 110.264 435.306 110.99C435.306 111.717 437.282 112.306 439.72 112.306Z"
            fill="#3F3D56" />
        <path
            d="M439.996 125.024C439.597 125.024 439.203 124.962 438.834 124.84C438.466 124.719 438.132 124.541 437.85 124.317C437.568 124.093 437.344 123.828 437.192 123.535C437.039 123.242 436.961 122.929 436.961 122.612V116.692H443.03V122.612C443.03 122.929 442.952 123.242 442.799 123.535C442.647 123.828 442.423 124.093 442.142 124.317C441.86 124.541 441.525 124.719 441.157 124.84C440.789 124.962 440.394 125.024 439.996 125.024V125.024Z"
            fill="#FF6584" />
        <path
            d="M439.351 57C439.67 57.5246 439.979 58.0548 440.269 58.5959C443.694 64.9432 444.849 71.9184 443.607 78.7537C442.985 78.0373 442.333 77.291 441.669 76.5364C443.091 69.9762 442.291 63.2334 439.351 57V57Z"
            fill="#3F3D56" />
        <path
            d="M434.385 61.824C434.704 62.3486 435.013 62.8788 435.303 63.4199C438.728 69.7672 439.883 76.7424 438.641 83.5777C438.019 82.8613 437.367 82.115 436.703 81.3604C438.125 74.8002 437.325 68.0574 434.385 61.824V61.824Z"
            fill="#3F3D56" />
        <path class='loop'
            d="M419.075 79.7833L419.774 72.7123L420.474 65.6412C420.512 65.2595 420.675 64.8923 420.948 64.5767C421.221 64.261 421.594 64.008 422.029 63.8431C422.463 63.6783 422.945 63.6072 423.426 63.6373C423.906 63.6673 424.368 63.7973 424.765 64.0142L432.12 68.0312L437.491 70.9646C437.835 70.6452 438.261 70.3887 438.741 70.2128C439.221 70.0369 439.743 69.9459 440.272 69.9459C440.8 69.9459 441.322 70.0369 441.802 70.2128C442.282 70.3887 442.709 70.6452 443.052 70.9646L448.423 68.0312L455.778 64.0142C456.175 63.7973 456.637 63.6673 457.118 63.6373C457.598 63.6072 458.08 63.6783 458.515 63.8431C458.95 64.008 459.322 64.261 459.595 64.5767C459.868 64.8923 460.032 65.2595 460.069 65.6412L460.769 72.7123L461.468 79.7833C461.506 80.1651 461.417 80.5481 461.209 80.8937C461.002 81.2394 460.684 81.5355 460.287 81.7524C459.889 81.9693 459.427 82.0993 458.947 82.1293C458.467 82.1594 457.985 82.0884 457.55 81.9235L449.495 78.8695L442.877 76.3601C442.537 76.6344 442.131 76.8521 441.684 77.0007C441.236 77.1493 440.756 77.2259 440.272 77.2259C439.787 77.2259 439.307 77.1493 438.86 77.0007C438.412 76.8521 438.007 76.6344 437.666 76.3601L431.048 78.8695L422.993 81.9235C422.558 82.0884 422.077 82.1594 421.596 82.1294C421.116 82.0994 420.654 81.9694 420.257 81.7525C419.86 81.5356 419.541 81.2394 419.334 80.8937C419.126 80.5481 419.037 80.1651 419.075 79.7833V79.7833Z"
            fill="#2C387E" />
        <path class='eye'
            d="M446.893 107.921C446.893 108.647 447.634 107.921 448.548 107.921C449.463 107.921 450.204 108.647 450.204 107.921C450.203 107.572 450.028 107.238 449.718 106.992C449.407 106.746 448.987 106.608 448.548 106.608C448.11 106.608 447.689 106.746 447.379 106.992C447.069 107.238 446.894 107.572 446.893 107.921V107.921Z"
            fill="#E6E6E6" />
        <path class='eye'
            d="M432.547 107.921C432.547 108.647 431.806 107.921 430.891 107.921C429.977 107.921 429.236 108.647 429.236 107.921C429.237 107.572 429.412 107.238 429.722 106.992C430.032 106.746 430.453 106.608 430.891 106.608C431.33 106.608 431.75 106.746 432.061 106.992C432.371 107.238 432.546 107.572 432.547 107.921V107.921Z"
            fill="#E6E6E6" />
        <path
            d="M616.201 207.255V198.892H563.591V199.415V207.255V274.68V283.042H574.113H616.201V274.68H574.113V207.255H616.201Z"
            fill="#3F3D56" />
        <path d="M641.849 198.893V283.042H694.459V198.893H641.849ZM683.937 274.68H652.371V207.255H683.937V274.68Z"
            fill="#2C387E" />
        <path d="M495.855 274.68V199.415H485.333V274.68V283.042H495.855H537.943V274.68H495.855Z" fill="#2C387E" />
        <path
            d="M461.659 207.255V198.892H409.049V199.415V207.255V236.525V244.888V274.68V283.042H419.571H461.659V274.68H419.571V244.888H461.659V236.525H419.571V207.255H461.659Z"
            fill="#3F3D56" />
        <path
            d="M873.333 207.255V198.892H820.723V199.415V207.255V236.525V244.888V274.68V283.042H831.245H873.333V274.68H831.245V244.888H873.333V236.525H831.245V207.255H873.333Z"
            fill="#2C387E" />
        <path
            d="M373.537 199.415V268.531L345.794 246.482L345.731 246.533L345.672 246.486L317.31 269.028V199.154H306.788V282.781H317.31V280.854L345.736 258.262L373.537 280.358V283.042H384.059V199.415H373.537Z"
            fill="#3F3D56" />
        <path
            d="M785.869 199.415V201.342L757.443 223.934L729.641 201.838V199.154H719.119V282.781H729.641V213.665L757.385 235.714L757.448 235.664L757.506 235.71L785.869 213.168V283.042H796.39V199.415H785.869Z"
            fill="#3F3D56" />
        <path class='ball'
            d="M511.45 147.9C515.017 147.9 517.908 145.602 517.908 142.767C517.908 139.932 515.017 137.634 511.45 137.634C507.883 137.634 504.992 139.932 504.992 142.767C504.992 145.602 507.883 147.9 511.45 147.9Z"
            fill="#2C387E" />
        <path class='ball'
            d="M352.143 204.933C355.71 204.933 358.601 202.635 358.601 199.8C358.601 196.965 355.71 194.667 352.143 194.667C348.576 194.667 345.685 196.965 345.685 199.8C345.685 202.635 348.576 204.933 352.143 204.933Z"
            fill="#2C387E" />
        <path class='reverseBall'
            d="M479.876 319C483.442 319 486.334 316.702 486.334 313.867C486.334 311.032 483.442 308.734 479.876 308.734C476.309 308.734 473.417 311.032 473.417 313.867C473.417 316.702 476.309 319 479.876 319Z"
            fill="#2C387E" />
        <path class='ball'
            d="M642.053 163.299C645.62 163.299 648.511 161.001 648.511 158.166C648.511 155.331 645.62 153.033 642.053 153.033C638.486 153.033 635.595 155.331 635.595 158.166C635.595 161.001 638.486 163.299 642.053 163.299Z"
            fill="#2C387E" />
        <path class='reverseBall'
            d="M832.217 314.437C835.784 314.437 838.675 312.139 838.675 309.304C838.675 306.469 835.784 304.171 832.217 304.171C828.65 304.171 825.758 306.469 825.758 309.304C825.758 312.139 828.65 314.437 832.217 314.437Z"
            fill="#2C387E" />
        <path class='ball'
            d="M838.675 179.838C842.242 179.838 845.134 177.54 845.134 174.705C845.134 171.87 842.242 169.572 838.675 169.572C835.108 169.572 832.217 171.87 832.217 174.705C832.217 177.54 835.108 179.838 838.675 179.838Z"
            fill="#2C387E" />
        <path class='reverseBall'
            d="M756.869 272.233C760.436 272.233 763.327 269.934 763.327 267.1C763.327 264.265 760.436 261.967 756.869 261.967C753.302 261.967 750.411 264.265 750.411 267.1C750.411 269.934 753.302 272.233 756.869 272.233Z"
            fill="#2C387E" />
    </g>
    <defs>
        <clipPath id="clip0">
            <rect width="920.297" height="567.136" fill="white" />
        </clipPath>
    </defs>
</svg>
